<svg xmlns="http://www.w3.org/2000/svg" width="32" height="31.999" viewBox="0 0 32 31.999">
    <g id="Group_37" data-name="Group 37" transform="translate(-736 -535)">
        <g id="Group_22" data-name="Group 22" transform="translate(736 535)">
            <path id="Path_11" data-name="Path 11" d="M786.662,210.02a16,16,0,1,1-16-16A16,16,0,0,1,786.662,210.02Z"
                  transform="translate(-754.662 -194.021)" fill="#dedede"/>
            <path id="Path_12" data-name="Path 12"
                  d="M784.7,224.373h-.007s-3.637,0-6.062.176a2.479,2.479,0,0,0-1.737.733,3.748,3.748,0,0,0-.688,1.72,26.276,26.276,0,0,0-.173,2.8v1.314a26.278,26.278,0,0,0,.173,2.8,3.745,3.745,0,0,0,.688,1.72,2.939,2.939,0,0,0,1.911.741c1.386.133,5.891.174,5.891.174h0s3.641-.006,6.066-.181a2.476,2.476,0,0,0,1.736-.734,3.749,3.749,0,0,0,.689-1.72,26.269,26.269,0,0,0,.173-2.8v-1.314a26.267,26.267,0,0,0-.173-2.8,3.752,3.752,0,0,0-.689-1.72,2.479,2.479,0,0,0-1.736-.733c-2.425-.176-6.062-.176-6.062-.176"
                  transform="translate(-768.454 -214.45)" fill="#212526"/>
        </g>
        <path id="Path_23" data-name="Path 23" d="M802.366,242.545l4.681-2.426-4.682-2.443Z"
              transform="translate(-51.913 310.72)" fill="#fff"/>
    </g>
</svg>
