<?xml version="1.0" encoding="UTF-8"?>
<svg id="Layer_1" data-name="Layer 1" xmlns="http://www.w3.org/2000/svg" viewBox="0 0 1101.03 1101.03">
  <defs>
    <style>
      .cls-1 {
        fill: #231f20;
        stroke-width: 0px;
      }
    </style>
  </defs>
  <path class="cls-1" d="M550.51,108.31c-244.22,0-442.21,197.98-442.21,442.2s197.99,442.2,442.21,442.2,442.2-197.98,442.2-442.2S794.73,108.31,550.51,108.31ZM534.35,332.18l50.69-128.52,50.69,128.52,128.52,50.69-128.52,50.69-50.69,128.52-50.69-128.52-128.52-50.69,128.52-50.69ZM550.51,946.74c-218.83,0-396.23-177.4-396.23-396.23,0-164.58,100.35-305.73,243.2-365.59-31.62,61.16-49.47,130.6-49.47,204.2,0,245.96,199.4,445.36,445.37,445.36,11.72,0,23.34-.45,34.84-1.35-71.5,70.27-169.55,113.61-277.71,113.61ZM845.26,584.55l-25.12,82.87-24.73-83.25-83.26-24.73,83.11-21.86,24.88-86.13,25.64,82.35,82.35,25.64-82.87,25.11Z"/>
</svg>