<svg xmlns="http://www.w3.org/2000/svg" viewBox="0 0 316.4 316.73"><defs><style>.cls-1{fill:#8f6f7a;}</style></defs><g id="Layer_2" data-name="Layer 2"><g id="Layer_2-2" data-name="Layer 2"><path class="cls-1" d="M306.46,103a157.55,157.55,0,0,0-19.73-36.88l-.11-.15c-2.55-3.52-5.24-7-8.08-10.27-.89-1.06-1.81-2.09-2.74-3.13l-.44-.49c-.86-.94-1.72-1.86-2.59-2.78l-.11-.11c-3-3.17-6.18-6.19-9.45-9.12,0,0,0,0,0,0a160.89,160.89,0,0,0-14.92-11.72l-.64-.44a157.37,157.37,0,0,0-25-14l-1.88-.84c-4.16-1.77-8.37-3.38-12.67-4.81h0C107.87-26.33-1.46,52.11,0,158.51A158.25,158.25,0,0,0,240.44,293.72c.49-.29,1-.59,1.46-.9a158.83,158.83,0,0,0,26.87-21.1,2.5,2.5,0,0,1,.23-.23c3.09-3,6-6.17,8.88-9.44l.23-.27a155,155,0,0,0,9.56-12.26,153.43,153.43,0,0,0,9.43-15.13c.71-1.27,1.38-2.55,2-3.85,1-2,2-4.09,3-6.17s1.79-4,2.64-6.06a.5.5,0,0,1,.05-.13C319.64,182.94,320.27,138.69,306.46,103ZM47.72,158.51A110.52,110.52,0,0,1,148.23,48.44V268.57A110.51,110.51,0,0,1,47.72,158.51Z"/></g></g></svg>