<?xml version="1.0" encoding="UTF-8"?>
<svg id="Layer_1" data-name="Layer 1" xmlns="http://www.w3.org/2000/svg" viewBox="0 0 1101.03 1101.03">
  <defs>
    <style>
      .cls-1 {
        fill: #231f20;
        stroke-width: 0px;
      }
    </style>
  </defs>
  <path class="cls-1" d="M736.43,550.51c0,102.68-83.23,185.92-185.91,185.92s-185.92-83.24-185.92-185.92,83.23-185.92,185.92-185.92,185.91,83.24,185.91,185.92Z"/>
  <path class="cls-1" d="M550.52,108.31c-244.23,0-442.21,197.98-442.21,442.2s197.98,442.21,442.21,442.21,442.2-197.98,442.2-442.21S794.74,108.31,550.52,108.31ZM830.69,830.69l-184.61-49.47-95.57,165.53-95.56-165.52-184.61,49.46,49.46-184.61-165.52-95.56,165.52-95.56-49.47-184.62,184.61,49.47,95.57-165.53,95.56,165.52,184.62-49.46-49.47,184.61,165.52,95.56-165.52,95.56,49.47,184.62Z"/>
</svg>