<svg xmlns="http://www.w3.org/2000/svg" width="32" height="32" viewBox="0 0 32 32">
    <g id="Group_36" data-name="Group 36" transform="translate(-690 -535)">
        <path id="Path_9" data-name="Path 9" d="M368.349,335.158a16,16,0,1,1-16-16A16,16,0,0,1,368.349,335.158Z"
              transform="translate(353.651 215.842)" fill="#dedede"/>
        <g id="Group_5" data-name="Group 5" transform="translate(698.518 542.717)">
            <path id="Path_10" data-name="Path 10"
                  d="M365.116,342.854a1.9,1.9,0,1,1-1.9-1.8A1.85,1.85,0,0,1,365.116,342.854Zm-.138,3.131h-3.5v10.267h3.5Zm8.472-.23a3.306,3.306,0,0,0-3.223,1.847v-1.617h-3.407v10.267h3.407v-6.5a3.121,3.121,0,0,1,.391-.678,1.944,1.944,0,0,1,1.5-.713,1.554,1.554,0,0,1,1.4.782,1.755,1.755,0,0,1,.323,1.1v6.009h3.316v-6.009C377.157,347.826,375.982,345.754,373.449,345.754Z"
                  transform="translate(-361.317 -341.058)" fill="#212526"/>
        </g>
    </g>
</svg>
